<svg width="1024" height="1024" viewBox="0 0 1024 1024" fill="none" xmlns="http://www.w3.org/2000/svg">
<rect width="1024" height="1024" fill="white"/>
<path d="M208.181 656.061C208.132 655.628 208.084 655.241 208.035 654.856C206.157 642.177 207.795 634.03 211.892 629.209C216.037 624.389 223.171 622.894 234.45 622.894C245.729 622.894 252.959 624.34 257.491 627.956C262.07 631.619 263.516 637.502 265.058 646.853C265.058 647.143 265.155 647.433 265.155 647.721C269.782 680.068 284.627 710.151 307.282 734.4C324.345 752.622 345.265 768.097 368.016 777.449L372.257 779.377C373.703 779.955 375.197 780.389 376.692 780.92L385.56 783.957C391.489 785.933 397.707 787.043 403.732 788.681C409.951 789.549 416.12 790.803 422.386 791.381L431.834 792.008L436.558 792.346L441.281 792.249C466.491 792.152 491.7 787.138 514.836 777.497C537.973 767.856 558.554 753.104 575.088 734.832C575.763 734.11 576.389 733.435 576.968 732.808C578.509 731.169 580.004 729.819 581.402 728.566C582.656 727.215 583.909 726.107 585.211 725.24C587.764 723.455 590.319 722.443 593.211 722.299C598.899 721.962 605.648 724.757 614.853 730.784C624.06 736.809 629.17 741.823 630.133 747.994C630.616 751.079 630.085 754.406 628.543 758.166C627.771 760.046 626.759 762.07 625.457 764.24C624.06 766.313 622.324 768.385 620.349 770.699C619.578 771.567 618.71 772.531 617.842 773.496C595.477 798.227 567.714 817.895 537.298 830.574C506.883 843.3 474.203 849.712 441.426 849.858L435.304 849.954L429.182 849.568L416.891 848.749C408.745 847.977 400.648 846.482 392.501 845.229C384.548 843.204 376.402 841.614 368.594 839.059L356.881 835.058C354.953 834.334 352.977 833.756 351.049 832.985L345.361 830.477C330.082 824.162 315.477 815.774 302.172 806.277C288.821 796.731 276.434 785.838 265.203 773.784C250.308 757.779 237.535 739.509 227.799 719.551C218.061 699.642 211.458 678.092 208.278 656.206L208.181 656.061Z" fill="#00B6D7"/>
<path d="M644.16 234.099C644.499 234.099 644.787 234.099 645.077 234.099C667.297 234.243 673.129 240.317 673.129 262.878C673.129 285.44 667.297 291.514 645.077 291.659C644.787 291.659 644.499 291.659 644.16 291.659H235.897C234.885 291.659 233.921 291.659 233.005 291.659C212.038 291.225 206.494 284.91 206.494 262.878C206.494 240.848 212.038 234.533 233.005 234.099C233.921 234.099 234.885 234.099 235.897 234.099H542.552H644.16Z" fill="#00B6D7"/>
<path d="M557.64 435.077C557.881 435.077 558.121 435.077 558.362 435.077C580.583 435.221 586.416 441.296 586.416 463.857C586.416 486.418 580.583 492.492 558.362 492.638C558.121 492.638 557.881 492.638 557.64 492.638H235.27C234.499 492.638 233.68 492.638 233.005 492.638C212.038 492.204 206.494 485.889 206.494 463.857C206.494 441.826 212.038 435.511 233.005 435.077C233.727 435.077 234.499 435.077 235.27 435.077H477.385H557.64Z" fill="#00B6D7"/>
<path fill-rule="evenodd" clip-rule="evenodd" d="M864.535 226.627C858.654 219.106 850.894 212.936 841.494 208.886C835.181 206.187 828.481 204.596 821.684 204.21C797.198 202.861 774.206 217.13 764.566 239.692L645.509 518.092C644.4 520.696 643.147 523.685 641.942 527.492C641.845 527.733 641.798 527.975 641.701 528.264C641.315 529.518 640.977 530.818 640.64 532.265C639.002 538.532 638.038 544.943 637.844 551.501L637.7 556.61C637.7 556.61 637.7 556.997 637.7 557.237L635.195 660.354C635.049 665.994 638.038 669.995 641.942 672.117C642.424 672.405 642.857 672.695 643.34 672.888C648.498 675.106 654.233 673.804 657.946 670.091L730.777 597.057C746.539 581.052 750.636 571.459 753.672 564.371L872.584 286.259L872.681 286.019C881.31 265.579 877.501 242.921 864.582 226.676L864.535 226.627Z" fill="#111213"/>
<path d="M700.045 1024C700.045 938.082 695.626 852.464 774.045 774.045C852.464 695.626 938.082 700.045 1024 700.045V1024L700.045 1024Z" fill="#111213"/>
<path d="M862.668 755.011C867.467 747.133 879.607 750.882 879.129 760.094L875.181 836.055H915.842C922.774 836.055 927.036 843.641 923.43 849.561L854.813 962.2C850.014 970.078 837.874 966.329 838.352 957.117L842.301 881.156H801.64C794.707 881.156 790.445 873.57 794.052 867.649L862.668 755.011Z" fill="#FFA73C"/>
</svg>
