<svg width="1546" height="360" viewBox="0 0 1546 360" fill="none" xmlns="http://www.w3.org/2000/svg">
<g clip-path="url(#clip0_1367_3503)">
<path d="M754.895 243.956C721.461 243.956 697.207 219.654 697.207 186.158C697.207 152.662 721.472 128.359 754.895 128.359C788.317 128.359 812.373 152.673 812.373 186.158C812.373 219.643 788.196 243.956 754.895 243.956ZM754.895 146.327C733.351 146.327 718.309 162.705 718.309 186.147C718.309 209.589 733.351 225.968 754.895 225.968C776.439 225.968 791.26 209.589 791.26 186.147C791.26 162.705 776.306 146.327 754.895 146.327Z" fill="#111213"/>
<path d="M1046.38 243.957C1021.29 243.957 1004.29 230.514 1001.45 208.828C1001.43 208.673 1001.4 208.287 1001.34 207.834C1001.23 206.763 1002.07 205.837 1003.15 205.837H1019.51C1020.41 205.837 1021.17 206.488 1021.3 207.371C1021.36 207.713 1021.4 208.022 1021.45 208.221C1023.69 219.467 1032.87 225.968 1046.38 225.968C1058.72 225.968 1067.68 219.764 1067.68 210.891C1067.68 197.57 1054.87 195.473 1041.31 193.255C1023.84 190.396 1004.03 187.152 1004.03 160.509C1004.03 141.272 1019.98 128.349 1043.7 128.349C1067.42 128.349 1083.46 140.036 1086.81 158.49C1086.9 158.964 1087.04 160.167 1087.16 161.249C1087.29 162.319 1086.44 163.257 1085.36 163.257H1068.94C1068.07 163.257 1067.33 162.65 1067.16 161.812C1067 161.083 1066.84 160.289 1066.76 160.035C1063.71 149.87 1053.02 145.786 1043.71 145.786C1032.03 145.786 1024.19 151.084 1024.19 159.847C1024.19 171.811 1036.31 173.566 1049.15 175.42C1067.49 178.069 1088.27 181.082 1088.27 210.45C1088.27 230.801 1071.82 243.947 1046.38 243.947" fill="#111213"/>
<path d="M867.096 242.247C855.848 242.247 846.58 238.836 840.287 232.38C833.673 225.592 830.489 215.858 830.832 203.464V155.863H830.677C824.494 155.488 818.366 154.759 812.483 153.678C812.073 153.601 811.72 153.369 811.476 153.027C811.244 152.685 811.156 152.265 811.234 151.846L814.297 136.229C814.441 135.501 815.082 134.982 815.823 134.982C815.911 134.982 816.012 134.982 816.1 135.004C820.822 135.854 825.711 136.461 830.632 136.792H830.798V134.143L830.82 101.894C830.82 101.033 831.517 100.338 832.379 100.338H849.909C850.772 100.338 851.469 101.033 851.469 101.894V136.626H851.646C861.047 135.81 869.706 134.044 878.897 131.042C879.052 130.987 879.217 130.964 879.383 130.964C880.047 130.964 880.634 131.384 880.843 132.013L886.042 147.056C886.174 147.453 886.152 147.884 885.964 148.259C885.777 148.634 885.456 148.91 885.057 149.042C873.876 152.718 863.247 154.837 851.624 155.709H851.48V203.42C851.48 215.902 858.481 223.054 870.68 223.054H882.116C882.979 223.054 883.675 223.749 883.675 224.61V240.701C883.675 241.551 882.979 242.258 882.116 242.258H867.096V242.247Z" fill="#111213"/>
<path d="M664.592 242.246C663.729 242.246 663.032 241.55 663.032 240.69V177.582C663.032 160.266 652.79 148.633 637.562 148.633C620.629 148.633 608.342 162.473 608.342 181.544V240.679C608.342 241.539 607.645 242.235 606.782 242.235H587.35C586.487 242.235 585.79 241.539 585.79 240.679V131.526C585.79 130.666 586.487 129.97 587.35 129.97H606.782C607.645 129.97 608.342 130.666 608.342 131.526V147.728C614.701 135.367 627.375 128.337 643.522 128.337C668.684 128.337 685.583 146.437 685.583 173.388V240.679C685.583 241.539 684.887 242.235 684.024 242.235H664.592V242.246Z" fill="#111213"/>
<path d="M544.902 242.258C544.039 242.258 543.343 241.562 543.343 240.701V228.936L543.055 229.356C537.061 237.887 524.076 242.986 508.327 242.986C476.199 242.986 455.429 220.637 455.429 186.037C455.429 151.437 476.099 129.088 508.106 129.088C522.551 129.088 536.895 136.471 543.066 143.424L543.343 143.733V86.0562C543.343 85.1953 544.039 84.5 544.902 84.5H562.741C563.604 84.5 564.301 85.1953 564.301 86.0562V240.712C564.301 241.573 563.604 242.268 562.741 242.268H544.902V242.258ZM510.948 147.188C490.366 147.188 476.531 162.871 476.531 186.202C476.531 209.533 490.366 225.217 510.948 225.217C531.53 225.217 545.588 209.533 545.588 186.202C545.588 162.871 531.663 147.188 510.948 147.188Z" fill="#111213"/>
<path d="M126.289 243.957C92.5015 243.957 57.3203 221.751 57.3203 172.153C57.3203 122.554 92.8997 100.349 127.085 100.349C154.835 100.349 175.55 115.778 183.933 142.696C184.099 143.237 184.021 143.833 183.723 144.318C183.424 144.804 182.915 145.146 182.34 145.235L166.182 147.85C166.071 147.872 165.972 147.872 165.861 147.872C165.076 147.872 164.357 147.409 164.036 146.68C155.763 127.775 144.361 119.343 127.063 119.343C98.3079 119.343 78.6326 140.069 78.6326 172.164C78.6326 204.258 98.8167 225.581 126.853 225.581C149.15 225.581 166.602 212.193 166.624 192.239C166.624 189.8 166.58 191.301 166.525 190.363C162.521 190.827 158.894 191.047 155.443 191.047C148.055 191.047 141.994 190.01 134.617 188.343C133.567 188.101 132.892 187.052 133.113 186.004L136.033 171.336C136.232 170.42 137.039 169.758 137.979 169.758C138.123 169.758 138.278 169.758 138.422 169.802C145.102 171.303 151.848 172.064 158.484 172.064C168.526 172.064 178.568 170.387 189.175 166.944C189.374 166.877 189.585 166.844 189.794 166.844C190.646 166.844 191.399 167.385 191.675 168.191L196.154 182.406C196.331 182.913 196.276 183.498 196.011 183.973C195.744 184.459 195.28 184.812 194.749 184.944C192.316 185.54 189.783 186.092 187.538 186.578L185.725 186.975L187.14 240.227C187.151 240.768 186.953 241.275 186.576 241.661C186.2 242.048 185.691 242.257 185.149 242.257H169.809C168.714 242.257 167.829 241.363 167.829 240.271V225.978C159.314 237.346 144.505 243.957 126.267 243.957" fill="#111213"/>
<path d="M940.898 243.957C895.199 242.698 883.62 205.77 885.499 183.167C888.873 142.619 918.114 128.326 939.449 128.326C989.96 128.326 992.049 184.723 992.061 185.275C992.061 186.07 991.552 186.765 990.822 187.019C967.254 195.407 948.762 197.812 932.813 197.812C924.739 197.812 916.666 196.378 907.211 194.612C906.967 194.568 906.745 194.778 906.79 195.02C909.709 213.496 925.956 226.121 941.395 225.989C959.269 225.835 968.039 218.496 971.656 207.006C971.866 206.332 972.452 205.858 973.149 205.858H991.563C992.038 205.858 992.481 206.079 992.78 206.455C993.078 206.818 993.189 207.294 993.089 207.746C988.334 229.41 968.426 244.564 940.898 243.968M936.065 145.974C917.208 147.74 908.615 165.486 906.812 174.978C906.778 175.177 906.79 175.364 906.9 175.53C907.011 175.695 907.177 175.784 907.365 175.839C932.05 182.328 954.668 178.521 970.185 174.481C970.362 174.437 970.528 174.327 970.627 174.172C970.726 174.018 970.726 173.852 970.716 173.676C970.262 166.513 961.325 143.612 936.065 145.974Z" fill="#111213"/>
<path d="M388.229 244.056C354.796 244.056 330.53 219.753 330.53 186.257C330.53 152.761 354.796 128.458 388.229 128.458C421.664 128.458 445.707 152.761 445.707 186.257C445.707 219.753 421.53 244.056 388.229 244.056ZM388.229 146.426C366.685 146.426 351.643 162.804 351.643 186.246C351.643 209.688 366.685 225.978 388.229 225.978C409.774 225.978 424.594 209.699 424.594 186.246C424.594 162.793 409.641 146.426 388.229 146.426Z" fill="#111213"/>
<path d="M262.978 244.056C229.543 244.056 205.29 219.753 205.29 186.257C205.29 152.761 229.554 128.458 262.978 128.458C296.4 128.458 320.455 152.761 320.455 186.257C320.455 219.753 296.279 244.056 262.978 244.056ZM262.978 146.426C241.432 146.426 226.392 162.804 226.392 186.246C226.392 209.688 241.432 225.978 262.978 225.978C284.522 225.978 299.342 209.699 299.342 186.246C299.342 162.793 284.389 146.426 262.978 146.426Z" fill="#111213"/>
</g>
<path d="M1197.28 118.4H1429.28C1464.4 118.4 1492.88 146.875 1492.88 182C1492.88 217.125 1464.4 245.6 1429.28 245.6H1197.28C1162.15 245.6 1133.68 217.125 1133.68 182C1133.68 146.875 1162.15 118.4 1197.28 118.4Z" stroke="#111213" stroke-width="4.8"/>
<path d="M1195.96 150.61C1197.42 148.223 1201.1 149.359 1200.95 152.151L1199.75 175.167H1212.08C1214.18 175.167 1215.47 177.466 1214.38 179.26L1193.59 213.391C1192.13 215.777 1188.45 214.641 1188.6 211.85L1189.79 188.833H1177.47C1175.37 188.833 1174.08 186.534 1175.17 184.74L1195.96 150.61Z" fill="#111213"/>
<path d="M1232.72 162.521H1256.59V168.215H1232.72V162.521ZM1241.55 148.87H1247.76V215.957H1241.55V148.87ZM1229.94 194.568C1232.96 189.555 1235.64 184.153 1237.97 178.362C1240.21 172.911 1241.92 167.631 1243.08 162.521L1246.73 167.485C1245.18 173.179 1243.4 178.654 1241.41 183.91C1239.41 189.166 1237.27 194.033 1234.98 198.51L1229.94 194.568ZM1247.39 172.011C1249.24 173.763 1251.33 175.977 1253.67 178.654C1255.37 180.649 1256.86 182.523 1258.12 184.275L1253.96 188.655C1252.79 186.757 1251.48 184.908 1250.02 183.107C1248.22 180.674 1246.81 178.946 1245.79 177.924L1247.39 172.011ZM1248.05 210.482C1250.38 207.319 1252.33 204.18 1253.89 201.065C1255.49 197.95 1256.78 194.86 1257.76 191.794C1258.68 188.874 1259.44 185.565 1260.02 181.866C1260.65 178.167 1261.04 174.347 1261.19 170.405C1261.33 166.414 1261.48 161.596 1261.63 155.951L1267.54 156.024L1267.25 163.543C1267.15 166.901 1267.05 169.432 1266.96 171.135C1266.66 179.408 1265.47 187.025 1263.38 193.984C1261.24 200.895 1257.83 207.562 1253.16 213.986L1248.05 210.482ZM1254.47 152.739H1289.73V158.579C1287.74 163.689 1285.89 167.777 1284.18 170.843H1293.75V176.829C1290.68 186.027 1286.67 193.619 1281.7 199.605C1279.27 202.574 1276.35 205.421 1272.94 208.146C1269.58 210.92 1265.62 213.694 1261.04 216.468L1257.03 211.066C1265.35 206.491 1271.87 201.503 1276.59 196.101C1281.12 190.796 1284.72 184.397 1287.4 176.902H1277.47V171.573C1279.41 167.874 1281.34 163.616 1283.23 158.798H1254.47V152.739ZM1266.08 161.426C1268.22 173.885 1271.82 183.764 1276.88 191.064C1279.46 194.811 1282.58 198.291 1286.23 201.503C1289.88 204.715 1294.01 207.611 1298.64 210.19L1295.13 216.103C1285.11 209.533 1277.69 202.768 1272.87 195.809C1267.9 188.752 1264.45 179.554 1262.5 168.215L1266.08 161.426ZM1341.66 148.943H1348.23V205.883H1341.66V148.943ZM1325.45 166.463H1364.65V184.859H1325.45V166.463ZM1331.58 171.865V179.457H1358.52V171.865H1331.58ZM1323.26 155.367H1366.84V161.28H1323.26V155.367ZM1312.24 150.038C1313.5 151.644 1315.13 154.029 1317.13 157.192C1318.3 159.09 1319.64 161.377 1321.15 164.054L1315.31 167.558C1314.96 166.925 1314.6 166.268 1314.21 165.587C1313.82 164.857 1313.41 164.103 1312.97 163.324C1312.73 162.935 1312.46 162.521 1312.17 162.083C1311.92 161.645 1311.68 161.207 1311.44 160.769C1309.25 157.314 1307.62 154.905 1306.55 153.542L1312.24 150.038ZM1321.95 198.291C1326.13 195.906 1329.91 193.084 1333.26 189.823C1334.72 188.363 1335.99 186.879 1337.06 185.37C1338.18 183.861 1339.13 182.231 1339.91 180.479L1344.21 183.983C1343.34 185.93 1342.27 187.828 1341 189.677C1339.78 191.478 1338.4 193.181 1336.84 194.787C1333.82 198.096 1330.2 201.114 1325.96 203.839L1321.95 198.291ZM1347.35 184.056C1349.06 185.029 1350.86 186.149 1352.75 187.414C1354.7 188.679 1356.53 189.945 1358.23 191.21C1361.93 193.887 1364.87 196.174 1367.06 198.072L1363.27 203.474C1360.83 201.235 1357.99 198.851 1354.73 196.32C1351.56 193.838 1348.42 191.599 1345.31 189.604L1347.35 184.056ZM1303.26 210.409L1312.46 199.678V179.749H1304.14V173.471H1318.74V199.605C1320.73 201.99 1323.46 203.839 1326.91 205.153C1330.37 206.467 1334.7 207.343 1339.91 207.781C1344.19 208.17 1348.84 208.292 1353.85 208.146C1358.91 208.049 1364.24 207.732 1369.84 207.197L1368.89 213.84C1362.76 214.229 1357.18 214.448 1352.17 214.497C1347.21 214.546 1342.8 214.424 1338.96 214.132C1333.26 213.694 1328.66 212.794 1325.16 211.431C1321.66 210.068 1318.52 208.122 1315.74 205.591L1308.08 214.862L1303.26 210.409ZM1383.8 168.872H1404.68V174.858H1383.8V168.872ZM1393.66 149.016H1399.72V171.427H1393.66V149.016ZM1398.48 210.774C1401.25 206.053 1403.25 201.26 1404.46 196.393C1405.19 193.376 1405.7 190.091 1406 186.538C1406.34 182.985 1406.53 178.824 1406.58 174.055V154.71C1412.18 154.272 1417.65 153.664 1423 152.885C1428.41 152.058 1433.27 151.084 1437.6 149.965L1439.28 156.389C1435.34 157.314 1430.94 158.165 1426.07 158.944C1421.25 159.674 1416.73 160.234 1412.49 160.623V174.639C1412.44 179.262 1412.27 183.375 1411.98 186.976C1411.74 190.529 1411.3 193.814 1410.67 196.831C1409.99 199.897 1409.11 202.793 1408.04 205.518C1406.97 208.243 1405.63 210.969 1404.02 213.694L1398.48 210.774ZM1405.92 211.358C1410.25 208.73 1414 205.98 1417.16 203.109C1420.33 200.189 1422.98 197.05 1425.12 193.692C1428.63 188.193 1430.96 181.89 1432.13 174.785H1409.5V168.799H1438.26V174.858C1437.48 179.238 1436.41 183.277 1435.05 186.976C1433.69 190.626 1431.96 194.081 1429.87 197.342C1427.63 200.943 1424.88 204.301 1421.62 207.416C1418.36 210.531 1414.44 213.572 1409.86 216.541L1405.92 211.358ZM1374.82 213.767C1375.99 211.382 1376.97 209.095 1377.74 206.905C1378.57 204.666 1379.23 202.306 1379.72 199.824C1380.2 197.099 1380.54 194.033 1380.74 190.626C1380.93 187.219 1381.03 183.156 1381.03 178.435V150.33H1387.16V179.749C1387.11 184.47 1386.99 188.533 1386.8 191.94C1386.65 195.347 1386.33 198.437 1385.85 201.211C1385.36 204.082 1384.7 206.735 1383.88 209.168C1383.1 211.65 1382.1 214.108 1380.88 216.541L1374.82 213.767ZM1383.8 183.18H1399.72V215.008H1393.44V189.385H1383.8V183.18ZM1418.48 173.398C1419.26 177.778 1420.3 181.793 1421.62 185.443C1422.93 189.044 1424.59 192.402 1426.58 195.517C1430.52 201.454 1435.85 206.564 1442.57 210.847L1438.85 216.322C1432.18 211.699 1426.85 206.418 1422.86 200.481C1420.28 196.685 1418.16 192.573 1416.51 188.144C1414.9 183.667 1413.68 178.8 1412.86 173.544L1418.48 173.398Z" fill="#111213"/>
<defs>
<clipPath id="clip0_1367_3503">
<rect width="1060" height="160" fill="white" transform="translate(56.2754 84.5)"/>
</clipPath>
</defs>
</svg>
